<svg xmlns="http://www.w3.org/2000/svg" viewBox="0 0 1200 760">
  <defs>
    <radialGradient id="bg" cx="50%" cy="45%" r="76%">
      <stop offset="0%" stop-color="#173655"/>
      <stop offset="42%" stop-color="#07182b"/>
      <stop offset="100%" stop-color="#030711"/>
    </radialGradient>
    <linearGradient id="neon" x1="0" x2="1" y1="0" y2="1">
      <stop offset="0%" stop-color="#35e9ff"/>
      <stop offset="45%" stop-color="#8eefff"/>
      <stop offset="70%" stop-color="#845cff"/>
      <stop offset="100%" stop-color="#ff7de3"/>
    </linearGradient>
    <filter id="glow" x="-45%" y="-45%" width="190%" height="190%">
      <feGaussianBlur stdDeviation="10" result="b"/>
      <feMerge>
        <feMergeNode in="b"/>
        <feMergeNode in="SourceGraphic"/>
      </feMerge>
    </filter>
  </defs>
  <rect width="1200" height="760" fill="url(#bg)"/>
  <g opacity=".22" stroke="#35e9ff" stroke-width="1">
    <path d="M0 610h1200M0 560h1200M0 510h1200M0 460h1200M0 410h1200M0 360h1200M0 310h1200"/>
    <path d="M170 760 510 0M1030 760 690 0M410 760 560 0M790 760 640 0"/>
  </g>
  <g filter="url(#glow)" fill="none" stroke="url(#neon)" stroke-width="9" stroke-linejoin="round">
    <path d="M600 160 735 410H465Z"/>
    <path d="M600 270 665 392H535Z" opacity=".62"/>
    <path d="M360 505 425 628H295Z" opacity=".8"/>
    <path d="M840 505 905 628H775Z" opacity=".8"/>
    <path d="m600 455 42 78 88 14-64 61 15 88-81-42-81 42 15-88-64-61 88-14z" opacity=".98"/>
    <circle cx="600" cy="385" r="54" opacity=".55"/>
  </g>
  <g fill="#fff8ef" opacity=".86">
    <circle cx="600" cy="160" r="7"/>
    <circle cx="360" cy="505" r="5"/>
    <circle cx="840" cy="505" r="5"/>
    <circle cx="600" cy="455" r="6"/>
  </g>
  <text x="80" y="655" font-family="Inter, Arial, sans-serif" font-size="64" font-weight="800" fill="#fff8ef">NEON TIDE</text>
  <text x="82" y="708" font-family="Inter, Arial, sans-serif" font-size="25" font-weight="600" fill="#8eefff">fractal capture shooter prototype</text>
</svg>
